<?xml version="1.0" standalone="no"?>
<!DOCTYPE svg PUBLIC "-//W3C//DTD SVG 20010904//EN"
 "http://www.w3.org/TR/2001/REC-SVG-20010904/DTD/svg10.dtd">
<svg version="1.0" xmlns="http://www.w3.org/2000/svg"
 width="800.000000pt" height="738.000000pt" viewBox="0 0 800.000000 738.000000"
 preserveAspectRatio="xMidYMid meet">

<g transform="translate(0.000000,738.000000) scale(0.100000,-0.100000)"
fill="#000000" stroke="none">
<path d="M1973 7278 c-26 -41 0 -802 42 -1238 53 -554 67 -729 61 -753 -3 -16
-13 -27 -23 -27 -18 0 -91 41 -273 155 -232 145 -285 177 -373 221 -48 25
-112 54 -143 65 -30 11 -85 41 -122 65 -89 59 -190 107 -209 100 -13 -5 -14
-21 -8 -111 l7 -105 -80 0 c-86 0 -200 -28 -222 -55 -18 -22 -7 -39 52 -83 91
-67 168 -143 168 -165 0 -12 -29 -51 -71 -94 -39 -40 -69 -78 -67 -85 3 -7 56
-36 119 -65 125 -57 153 -79 194 -150 69 -119 119 -215 159 -304 24 -52 74
-145 111 -205 80 -128 135 -239 135 -271 0 -12 -13 -58 -29 -103 -44 -118 -97
-336 -122 -500 -29 -185 -31 -517 -5 -708 9 -67 13 -135 10 -150 -4 -15 -32
-67 -64 -117 -75 -117 -93 -155 -124 -251 -36 -115 -46 -182 -46 -323 0 -148
18 -226 87 -371 39 -82 58 -107 137 -185 65 -65 114 -103 173 -135 78 -43 83
-47 99 -95 9 -27 32 -75 50 -106 38 -64 124 -159 142 -159 7 0 22 16 34 35 11
20 26 34 32 32 6 -2 25 -21 41 -43 42 -55 77 -82 111 -86 27 -3 29 0 37 42 22
121 32 128 119 90 76 -33 79 -29 71 94 -9 154 8 167 116 88 111 -82 183 -128
261 -167 41 -21 86 -45 100 -55 14 -10 59 -32 101 -49 70 -29 81 -38 120 -94
24 -34 93 -111 154 -170 94 -94 123 -115 200 -153 140 -68 165 -60 205 67 12
41 41 109 63 151 40 76 41 77 86 84 25 3 63 10 85 14 38 8 86 -2 86 -17 0 -5
27 -39 61 -77 64 -73 138 -209 204 -376 66 -169 116 -230 218 -269 128 -47
255 -46 362 3 59 27 247 160 295 208 58 57 178 206 228 281 83 125 137 299
153 487 10 131 7 188 -17 310 -15 72 -24 102 -58 182 l-16 36 46 59 c74 95
274 438 337 578 32 72 69 153 81 180 13 28 26 60 30 73 8 25 38 43 111 65 79
24 329 111 450 157 135 50 245 99 558 249 180 87 215 93 295 58 90 -40 108
-43 116 -15 3 13 6 62 6 109 0 68 4 91 18 108 9 12 63 39 120 60 95 36 142 63
142 82 0 12 -142 99 -192 117 -60 21 -62 40 -8 83 22 18 40 38 40 45 0 22 -41
42 -126 63 -181 45 -360 67 -914 111 -69 5 -172 18 -229 27 -111 18 -141 34
-141 76 0 26 66 96 176 187 43 36 108 92 145 125 78 71 302 258 551 459 81 66
268 230 363 317 65 60 181 161 315 273 111 93 190 172 190 190 0 8 -12 17 -27
20 -141 29 -874 54 -1090 37 -76 -6 -268 -14 -428 -16 -159 -3 -390 -7 -512
-10 -174 -3 -223 -2 -223 8 0 7 18 35 40 62 85 105 97 121 128 167 41 60 41
72 0 65 -18 -3 -76 -10 -128 -16 -52 -5 -166 -18 -252 -27 -87 -10 -160 -15
-164 -12 -3 4 17 44 44 90 27 45 65 110 85 143 67 113 197 366 200 388 2 19
-2 21 -38 19 -83 -6 -245 -52 -610 -173 -186 -62 -255 -89 -474 -185 -85 -38
-90 -36 -143 64 -51 96 -77 126 -104 120 -15 -3 -93 -122 -107 -163 -7 -21
-61 22 -202 162 -79 79 -151 143 -159 143 -10 0 -17 -15 -21 -47 -3 -27 -12
-86 -20 -133 -8 -47 -15 -102 -15 -122 0 -21 -3 -38 -6 -38 -13 0 -144 119
-324 295 -170 166 -312 301 -635 600 -65 61 -134 124 -154 140 -19 17 -68 60
-109 98 -40 37 -88 75 -105 84 -18 9 -48 29 -67 44 -37 31 -64 37 -77 17z m68
-41 c14 -12 59 -49 100 -81 71 -57 265 -232 339 -306 20 -19 119 -111 220
-204 102 -93 295 -275 429 -405 135 -130 264 -255 288 -277 l43 -42 108 0
c129 1 384 -18 431 -32 18 -5 62 -9 97 -9 41 1 102 -10 176 -31 107 -29 117
-34 163 -81 26 -27 57 -49 67 -49 11 0 17 -4 14 -8 -3 -5 8 -6 25 -4 16 2 29
0 29 -6 0 -6 9 -9 20 -7 11 2 20 -1 20 -7 0 -7 5 -6 14 1 10 8 16 9 21 1 3 -5
16 -10 27 -10 12 0 32 -10 45 -22 13 -12 23 -16 23 -9 0 8 10 7 33 -6 17 -10
34 -21 35 -25 2 -5 16 -8 31 -8 26 0 79 -29 54 -30 -7 0 -13 -5 -13 -11 0 -8
4 -8 15 1 9 7 26 9 46 5 23 -5 28 -10 18 -16 -10 -6 -7 -9 11 -10 14 -1 28 -1
32 0 12 2 47 -36 40 -43 -3 -3 2 -6 12 -6 9 0 14 -4 11 -10 -3 -5 0 -10 8 -10
8 0 20 -7 27 -15 16 -19 31 -20 24 -1 -9 24 28 37 69 24 21 -6 37 -16 37 -21
0 -5 7 -15 15 -21 12 -9 13 -17 2 -53 -7 -24 -17 -47 -23 -53 -7 -7 -6 -37 1
-95 10 -71 9 -87 -2 -93 -11 -7 -11 -14 1 -43 11 -25 16 -29 17 -14 1 11 2 27
3 35 1 10 14 16 41 17 l40 2 -34 -13 c-24 -8 -31 -15 -22 -20 7 -5 18 -3 24 3
14 14 54 14 62 1 3 -5 15 -10 25 -10 10 0 20 -5 22 -11 3 -8 14 -6 37 6 28 14
35 14 42 3 6 -9 9 -7 9 9 0 12 4 25 10 28 6 3 10 1 10 -5 0 -6 5 -8 10 -5 6 4
8 11 5 16 -4 5 -1 9 5 9 23 0 36 27 35 75 0 47 -2 50 -30 56 -16 4 -23 7 -15
8 12 1 12 3 2 10 -11 7 -11 9 2 14 9 4 16 11 16 16 0 6 -7 8 -15 5 -8 -4 -15
-2 -15 4 0 6 -13 13 -30 17 -16 4 -30 11 -30 16 0 5 -11 7 -25 3 -20 -5 -24
-3 -19 9 4 12 1 14 -15 10 -12 -3 -21 -1 -21 6 0 6 6 11 13 11 9 0 8 3 -2 9
-11 7 -10 10 6 15 10 3 264 8 563 11 300 3 588 9 640 14 52 5 263 8 469 6 308
-3 377 -7 396 -19 12 -8 51 -18 86 -22 l63 -7 -89 -84 c-48 -45 -92 -83 -96
-83 -4 0 -10 9 -14 19 -9 30 -110 46 -126 19 -3 -5 -17 -10 -30 -12 -27 -3
-84 -33 -110 -58 -10 -9 -19 -13 -21 -8 -2 5 -15 6 -30 3 -15 -3 -25 -9 -22
-14 3 -5 -6 -9 -20 -9 -24 0 -25 -2 -14 -25 14 -30 19 -31 36 -5 7 12 17 18
23 15 5 -4 16 -1 24 5 8 7 15 9 15 4 0 -5 5 -2 10 6 8 13 10 13 10 1 0 -11 4
-9 15 5 11 15 14 16 15 3 0 -9 -20 -24 -52 -37 -77 -33 -85 -41 -92 -101 -4
-30 -13 -66 -21 -80 -8 -14 -17 -33 -21 -41 -10 -25 -75 -74 -98 -75 -12 -1
-28 -5 -35 -9 -7 -5 -20 -2 -29 7 -9 8 -34 17 -54 20 -34 5 -39 3 -44 -19 -3
-13 -11 -21 -17 -17 -6 4 -8 -3 -3 -21 4 -18 2 -26 -6 -26 -8 0 -9 -3 -3 -8
17 -12 41 -47 28 -38 -9 5 -13 0 -13 -14 0 -11 7 -23 15 -26 8 -4 15 -12 15
-19 0 -10 -66 -69 -174 -155 -10 -8 -34 -30 -52 -48 -19 -18 -34 -29 -34 -25
0 4 -7 -2 -16 -13 -8 -10 -13 -13 -9 -7 19 38 14 51 -22 55 -30 4 -36 1 -44
-20 -5 -13 -7 -27 -4 -32 3 -4 -2 -10 -10 -14 -8 -3 -15 -14 -15 -24 0 -10
-13 -31 -30 -47 -16 -16 -30 -34 -30 -39 0 -6 -15 -21 -33 -33 -17 -12 -75
-64 -127 -115 -52 -51 -122 -114 -155 -140 l-60 -48 -6 33 c-25 124 -32 154
-37 167 -3 8 -4 18 -4 23 3 14 -29 7 -34 -8 -3 -8 1 -48 10 -88 30 -136 38
-373 22 -654 -5 -75 6 -95 25 -46 13 35 37 252 39 356 0 22 33 22 160 2 52 -8
121 -17 153 -21 64 -6 76 -25 27 -43 -33 -11 -77 2 -93 26 -5 8 -13 10 -19 7
-6 -4 -13 -1 -17 5 -10 16 -87 17 -106 1 -10 -8 -15 -9 -15 -1 0 6 -4 11 -10
11 -5 0 -7 -7 -4 -15 4 -10 0 -15 -14 -15 -12 0 -24 -4 -27 -10 -4 -6 1 -7 11
-3 14 5 16 3 9 -13 -10 -21 -10 -57 -2 -195 2 -53 1 -112 -3 -130 -4 -19 -9
-29 -10 -24 -1 6 -5 -1 -9 -15 -4 -14 -13 -24 -20 -22 -7 1 -15 -7 -18 -18 -5
-19 -43 -30 -43 -12 0 5 -13 7 -30 6 -22 -1 -30 2 -30 14 0 15 -2 15 -10 2 -8
-12 -12 -11 -30 8 -11 12 -27 22 -34 22 -8 0 -28 16 -44 35 -19 21 -33 29 -36
22 -3 -8 -5 -7 -5 3 -1 14 -41 44 -83 62 -10 4 -18 11 -18 16 0 5 -20 15 -45
22 -25 7 -49 19 -54 27 -4 9 -23 16 -41 17 -19 1 -35 7 -38 14 -2 6 -10 12
-18 12 -8 0 -14 8 -14 17 0 9 -3 13 -7 10 -3 -4 -13 6 -21 21 -15 28 -18 135
-4 140 4 1 7 24 6 50 -1 33 -6 48 -17 50 -9 2 -19 12 -22 23 -4 11 -9 18 -11
16 -3 -2 -21 11 -40 30 -19 18 -39 31 -44 28 -4 -3 -11 9 -15 26 -4 17 -12 32
-19 35 -7 3 -11 26 -10 64 1 33 -2 60 -8 60 -5 0 4 11 19 25 24 21 26 26 13
35 -8 5 -10 10 -4 10 7 0 14 9 17 21 3 12 10 18 16 14 6 -3 11 0 11 7 0 8 12
12 33 12 43 -2 77 -14 77 -27 0 -6 3 -8 6 -5 3 4 24 -2 47 -13 59 -26 113 -25
129 4 20 36 38 90 38 117 0 20 2 22 10 10 7 -11 10 -6 10 21 0 19 7 44 16 55
13 16 15 16 10 2 -6 -20 10 -25 17 -5 3 7 6 5 6 -5 1 -12 -6 -18 -19 -18 -11
0 -20 -4 -20 -10 0 -10 27 -3 49 14 12 9 13 8 8 -7 -6 -16 -5 -16 18 -1 19 12
25 13 25 3 0 -8 6 -5 16 7 8 10 13 13 9 7 -4 -8 0 -13 9 -13 9 0 16 4 16 10 0
5 19 3 42 -6 48 -17 63 -13 19 6 -33 13 -37 43 -10 62 11 7 11 11 2 15 -15 6
-17 39 -3 48 10 6 -11 35 -26 35 -5 0 -3 -5 4 -12 20 -20 14 -27 -13 -15 -14
7 -25 18 -25 25 0 6 -5 12 -11 12 -5 0 -7 5 -3 12 5 8 0 9 -14 6 -16 -5 -22
-2 -22 10 -1 14 -3 13 -12 -3 -15 -26 -30 -36 -45 -30 -7 2 -13 1 -13 -3 0 -5
6 -14 13 -21 8 -10 8 -12 0 -7 -6 3 -14 2 -18 -4 -3 -5 -1 -10 4 -10 6 0 11
-7 11 -15 0 -8 -4 -15 -10 -15 -5 0 -10 -9 -10 -21 0 -14 -5 -19 -17 -17 -10
2 -18 8 -18 15 0 6 -3 15 -7 19 -5 4 -8 2 -8 -4 0 -18 -13 -15 -38 8 -12 12
-22 18 -22 14 0 -3 -15 5 -34 20 -46 34 -66 34 -66 -2 0 -30 -17 -44 -80 -66
-38 -13 -39 -13 -28 7 6 11 15 26 19 31 53 66 54 70 53 141 -1 39 1 75 4 80
15 24 22 195 9 195 -5 0 -7 6 -4 13 2 6 -2 18 -9 25 -8 7 -14 9 -14 5 0 -4 -6
3 -13 17 -7 14 -18 25 -25 25 -7 0 -16 5 -20 10 -4 6 -13 10 -19 11 -29 2 -32
5 -27 19 4 8 1 15 -5 15 -6 0 -11 -10 -11 -23 0 -13 -4 -27 -9 -33 -6 -5 -12
-25 -14 -44 -7 -52 -18 -90 -28 -90 -5 0 -6 -6 -3 -14 3 -8 -6 -25 -20 -39
-14 -14 -28 -37 -32 -51 -3 -14 -12 -26 -18 -26 -22 0 -37 -22 -25 -37 9 -10
7 -13 -10 -13 -11 0 -20 -3 -20 -7 4 -24 -3 -35 -17 -29 -8 3 -12 2 -9 -4 9
-14 -17 -38 -49 -46 -14 -3 -26 -12 -26 -19 0 -16 -38 -26 -44 -11 -2 6 -5 0
-5 -13 -1 -24 -1 -24 -16 -5 -15 19 -15 19 -35 -5 -16 -19 -18 -26 -8 -32 9
-6 3 -12 -19 -20 -18 -6 -31 -14 -28 -19 4 -7 -30 -21 -39 -17 -1 1 -11 -5
-21 -13 -9 -8 -32 -14 -49 -13 -24 1 -25 0 -7 -4 23 -4 21 -7 -20 -27 -36 -18
-44 -28 -44 -50 -1 -15 3 -30 7 -32 17 -11 7 -22 -14 -17 -22 4 -21 4 2 -9 14
-8 24 -20 23 -26 -2 -7 2 -12 7 -12 6 0 10 -7 10 -15 0 -8 5 -15 10 -15 6 0
10 -5 10 -10 0 -6 18 -26 40 -46 22 -20 40 -41 40 -48 0 -6 -5 -4 -10 4 -8 13
-10 13 -10 -1 0 -9 7 -22 15 -29 13 -11 14 -10 10 3 -7 17 10 31 25 22 8 -5 7
-11 -1 -21 -9 -11 -8 -14 5 -14 11 0 14 -5 10 -12 -11 -18 -12 -68 -1 -68 5 0
3 -8 -4 -17 -12 -15 -12 -16 1 -8 10 5 12 5 5 -3 -5 -5 -41 -27 -80 -48 -38
-21 -89 -53 -113 -71 -24 -18 -48 -33 -54 -33 -5 0 -28 -13 -51 -29 -23 -15
-70 -46 -104 -67 -87 -55 -235 -156 -251 -171 -8 -8 -28 -21 -45 -30 -18 -8
-73 -44 -122 -78 -73 -50 -95 -60 -113 -54 -25 9 -30 46 -7 46 8 0 15 -7 15
-15 0 -9 3 -13 6 -9 4 3 3 14 -1 24 -5 10 -9 23 -9 28 -1 6 -11 11 -22 13 -12
2 -26 14 -33 28 -6 14 -7 23 -2 19 14 -8 23 30 22 93 0 51 3 60 30 84 17 16
38 28 47 28 14 0 14 2 3 9 -12 8 -12 12 2 25 11 12 17 13 20 3 3 -6 6 -1 6 12
1 17 5 21 17 17 9 -3 12 -2 9 5 -4 6 -13 8 -20 5 -29 -11 -21 8 26 57 87 94
94 102 107 126 16 31 15 36 -5 20 -15 -13 -15 -12 -3 8 8 12 18 21 24 20 5 -1
11 7 13 18 3 18 2 18 -5 2 -7 -17 -9 -17 -21 -3 -16 19 -6 50 14 43 9 -4 12
-1 9 8 -6 14 -34 9 -34 -6 0 -5 -4 -9 -10 -9 -5 0 -10 8 -10 17 0 15 -2 14
-19 -3 -19 -19 -18 -40 1 -28 7 4 8 2 4 -4 -4 -7 -14 -12 -23 -12 -13 0 -13
-3 -3 -16 12 -13 9 -15 -29 -10 -35 4 -42 2 -37 -10 3 -9 1 -12 -4 -9 -6 3
-10 13 -10 22 0 15 -2 14 -18 0 -10 -10 -21 -14 -24 -11 -4 3 -10 -5 -14 -18
-7 -22 -7 -22 -15 -3 -6 15 -8 16 -8 4 -1 -21 -27 -32 -68 -30 -37 3 -42 -6
-69 -109 -8 -30 -19 -57 -25 -58 -5 -2 -7 -7 -4 -11 2 -5 0 -23 -6 -42 -6 -19
-12 -45 -14 -59 -1 -14 -7 -36 -12 -50 -8 -18 -7 -27 1 -32 8 -6 8 -8 0 -8 -6
0 -11 -14 -12 -30 -1 -39 -21 -101 -39 -118 -7 -7 -25 -12 -41 -10 -32 4 -83
53 -75 74 3 7 0 14 -5 14 -6 0 -9 12 -6 27 3 15 0 30 -8 34 -10 7 -10 9 1 9
20 0 -19 29 -39 30 -10 0 -11 -3 -4 -8 6 -4 13 -16 16 -27 4 -15 0 -21 -13
-21 -10 0 -17 3 -17 6 2 18 -4 26 -22 27 -11 1 -20 -4 -20 -12 0 -9 6 -12 15
-9 9 4 15 0 15 -10 0 -9 7 -16 16 -16 8 0 13 -4 9 -10 -3 -5 -12 -7 -20 -3 -8
3 -15 0 -15 -6 0 -6 -7 -11 -16 -11 -8 0 -12 5 -9 10 3 6 1 10 -4 10 -6 0 -11
-7 -11 -15 0 -17 -16 -20 -25 -5 -8 13 -55 -18 -55 -35 0 -8 -8 -11 -21 -8
-18 5 -20 3 -14 -17 5 -14 3 -20 -3 -16 -6 3 -12 3 -15 -1 -2 -5 -2 -2 -1 5 2
6 -3 12 -10 12 -8 0 -17 6 -19 13 -3 7 -6 5 -6 -5 -1 -11 -9 -18 -21 -18 -11
0 -19 -3 -18 -7 4 -13 -26 -53 -38 -53 -7 0 -14 -7 -18 -15 -3 -8 -12 -12 -21
-9 -8 3 -15 1 -15 -5 0 -15 -45 -14 -62 1 -7 7 -30 21 -50 30 -35 16 -43 28
-38 53 1 6 -2 7 -5 3 -7 -7 -76 39 -83 55 -2 4 -10 7 -18 7 -8 0 -14 5 -14 11
0 5 -4 7 -10 4 -5 -3 -10 -1 -10 4 0 17 -126 14 -143 -4 -8 -7 -26 -17 -41
-21 -15 -3 -33 -15 -40 -26 -10 -15 -15 -16 -20 -6 -5 10 -7 10 -12 1 -7 -17
-27 -17 -22 -1 3 7 -4 21 -14 32 -10 11 -18 30 -18 43 0 13 -5 23 -11 23 -5 0
-7 4 -4 10 3 5 -9 40 -27 77 -18 38 -32 75 -31 83 2 9 0 10 -3 3 -5 -12 -8
-12 -69 19 -25 12 -40 12 -87 3 l-56 -11 -36 86 c-19 47 -38 102 -42 123 -3
20 -10 37 -15 37 -19 0 -21 -32 -6 -108 15 -72 13 -162 -3 -162 -3 0 -5 -15
-4 -32 2 -18 1 -25 -2 -16 -3 9 -11 15 -18 12 -15 -6 -54 38 -48 55 3 8 -3 18
-12 23 -9 5 -14 13 -11 19 4 5 0 9 -8 9 -11 0 -13 7 -9 22 5 21 4 20 -24 -5
-34 -32 -48 -34 -41 -8 3 13 -1 21 -12 24 -11 3 -9 5 7 6 26 1 29 16 6 29 -9
5 -15 12 -15 15 3 19 0 30 -5 24 -9 -9 -44 11 -44 26 0 8 3 7 9 -2 6 -9 15
-11 27 -6 18 8 18 8 2 12 -19 5 -25 23 -7 23 5 0 7 5 4 11 -4 6 -13 8 -20 5
-10 -3 -12 3 -10 25 3 20 -1 32 -11 36 -8 3 -13 12 -9 21 6 17 -13 44 -26 36
-15 -9 -10 13 6 29 8 8 11 17 8 21 -4 3 4 25 17 48 14 25 19 43 13 45 -6 2 -9
12 -6 22 3 10 0 22 -5 25 -6 3 -8 15 -5 27 4 15 -4 29 -28 52 -36 33 -37 34
-69 36 -11 0 -19 6 -18 12 2 6 -6 13 -17 15 -11 1 -21 8 -23 13 -2 6 -15 11
-28 11 -13 0 -24 6 -24 13 0 8 -3 8 -9 -2 -8 -12 -14 -12 -39 -2 -18 8 -29 18
-26 26 4 8 -8 15 -33 20 -21 4 -42 10 -48 15 -14 11 -124 70 -131 70 -3 0 -2
-6 2 -12 4 -7 -4 -2 -16 11 -17 17 -25 20 -28 12 -4 -11 -6 -10 -13 0 -7 11
-11 11 -17 2 -5 -8 -25 27 -56 95 -92 205 -210 382 -254 382 -5 0 -49 14 -96
31 l-86 32 28 26 c15 14 45 41 66 59 21 18 42 47 46 64 8 27 5 36 -27 75 -20
25 -72 72 -115 105 -43 34 -75 65 -71 69 17 16 160 35 224 29 73 -6 110 -1
116 17 2 6 -4 14 -14 17 -10 3 -19 14 -20 23 -1 10 -9 51 -18 92 -8 41 -14 76
-11 78 6 6 78 -29 109 -54 15 -12 103 -58 195 -103 92 -45 185 -91 207 -102
54 -29 398 -243 457 -285 26 -18 50 -33 53 -33 2 0 28 -14 56 -31 47 -30 50
-34 45 -63 -4 -17 -18 -59 -32 -93 -26 -66 -25 -83 5 -83 20 0 40 21 61 63 7
15 38 51 68 80 30 28 71 68 91 88 43 43 125 109 135 109 4 0 26 13 49 28 23
16 66 41 95 57 28 15 52 34 52 42 0 7 -2 13 -4 13 -14 0 -183 -86 -223 -114
-27 -18 -67 -43 -89 -54 -22 -11 -66 -48 -97 -82 l-57 -61 0 60 c0 88 -25 395
-55 681 -8 74 -19 200 -25 280 -6 80 -15 206 -20 280 -14 176 -32 778 -25 791
9 13 17 11 46 -14z m3232 -915 c16 -7 16 -9 2 -27 -12 -16 -14 -17 -9 -3 4 13
-1 21 -17 27 -13 5 -17 10 -9 10 8 0 23 -4 33 -7z m-63 -54 c0 -6 3 -8 7 -5 3
4 12 2 19 -4 25 -21 -9 -61 -86 -103 -52 -28 -75 -35 -83 -27 -8 8 -5 19 11
41 12 16 22 33 22 38 0 13 53 60 75 65 33 8 35 7 35 -5z m-1652 -30 l31 -33
-39 0 c-22 0 -40 5 -40 10 0 12 11 55 14 55 1 0 16 -15 34 -32z m446 -103 c23
-35 20 -41 -19 -37 -37 4 -38 5 -29 40 8 29 28 28 48 -3z m1543 -871 c-3 -3
-12 -4 -19 -1 -8 3 -5 6 6 6 11 1 17 -2 13 -5z m1679 -42 c-17 -16 -18 -16 -5
5 7 12 15 20 18 17 3 -2 -3 -12 -13 -22z m144 4 c0 -2 -8 -10 -17 -17 -16 -13
-17 -12 -4 4 13 16 21 21 21 13z m-120 -89 c0 -2 -12 -14 -27 -28 l-28 -24 24
28 c23 25 31 32 31 24z m-2003 -148 c-6 -10 -13 -15 -15 -9 -6 17 7 42 18 35
6 -4 5 -13 -3 -26z m1744 -92 c-10 -9 -11 -8 -5 6 3 10 9 15 12 12 3 -3 0 -11
-7 -18z m-66 -65 c-6 -4 -23 -18 -40 -32 l-30 -25 29 33 c17 17 34 32 40 32 6
0 6 -3 1 -8z m-85 -69 c0 -5 -13 -17 -28 -27 l-27 -19 24 26 c26 28 31 32 31
20z m-1970 -206 c0 -8 -6 -14 -14 -14 -8 0 -12 6 -9 14 3 7 9 13 14 13 5 0 9
-6 9 -13z m250 -117 c0 -5 -4 -10 -10 -10 -5 0 -10 5 -10 10 0 6 5 10 10 10 6
0 10 -4 10 -10z m1285 -38 c-53 -42 -60 -46 -33 -19 16 15 31 27 35 27 4 0 3
-3 -2 -8z m-4847 -87 c-6 -14 -13 -23 -15 -21 -5 5 15 46 22 46 3 0 -1 -11 -7
-25z m3119 -37 c-3 -8 -6 -5 -6 6 -1 11 2 17 5 13 3 -3 4 -12 1 -19z m-3007
-68 c0 -5 -5 -10 -11 -10 -5 0 -7 5 -4 10 3 6 8 10 11 10 2 0 4 -4 4 -10z
m3490 -4 c0 -2 -15 -13 -33 -24 -25 -14 -34 -16 -34 -6 0 7 3 11 6 9 4 -2 17
3 31 11 28 15 30 16 30 10z m-3440 -77 c0 -5 -4 -9 -8 -9 -5 0 -9 7 -9 15 0 8
4 12 9 9 4 -3 8 -9 8 -15z m-30 7 c0 -3 -4 -8 -10 -11 -5 -3 -10 -1 -10 4 0 6
5 11 10 11 6 0 10 -2 10 -4z m-196 -59 c4 4 7 1 5 -7 -4 -28 13 -70 30 -71 9
-1 6 -4 -9 -9 -24 -8 -24 -8 -2 -9 24 -1 28 -11 11 -28 -8 -8 -5 -17 10 -32
12 -12 17 -21 13 -21 -5 0 -9 -7 -9 -15 0 -8 5 -15 10 -15 6 0 8 -3 4 -6 -11
-12 22 -95 52 -129 17 -20 31 -47 31 -61 0 -14 4 -23 9 -20 5 4 7 -3 4 -13 -3
-13 2 -23 17 -31 16 -9 19 -15 10 -24 -8 -10 -6 -15 9 -19 11 -3 22 -2 24 2 2
3 3 1 1 -5 -1 -6 2 -17 7 -25 6 -10 9 -10 9 -1 0 6 8 12 18 11 9 0 12 -3 5 -5
-7 -3 -9 -13 -6 -21 5 -12 2 -15 -9 -10 -11 4 -18 -1 -21 -15 -4 -14 -11 -19
-23 -14 -12 5 -15 2 -10 -10 3 -8 6 -20 6 -25 0 -5 9 -18 20 -29 11 -11 16
-20 11 -20 -12 0 -2 -38 17 -67 7 -12 15 -37 17 -55 2 -18 8 -44 13 -58 12
-32 7 -119 -7 -133 -9 -9 -17 -8 -31 1 -11 7 -20 8 -20 3 0 -5 -9 -7 -20 -4
-18 5 -20 0 -20 -38 0 -24 7 -71 15 -104 33 -134 31 -225 -5 -225 -13 0 -20
-7 -20 -19 0 -11 -5 -23 -10 -26 -6 -4 -9 -2 -8 3 2 6 0 10 -4 11 -22 3 -28 0
-22 -10 5 -9 -9 -10 -52 -4 -66 8 -107 24 -64 25 22 1 23 2 7 11 -9 5 -22 7
-27 4 -6 -3 -10 0 -10 8 0 17 -21 27 -53 27 -16 0 -18 3 -10 11 9 9 8 15 -2
25 -7 8 -17 14 -22 14 -4 0 -19 12 -32 25 -12 14 -27 22 -32 19 -5 -3 -9 1 -9
8 0 7 -5 94 -11 193 -6 121 -6 216 1 290 5 61 15 172 21 248 11 146 53 337
105 476 l27 73 17 -31 c9 -18 20 -28 24 -24z m194 -50 c7 -8 7 -18 2 -27 -8
-12 -10 -12 -10 -1 0 7 -6 11 -15 8 -11 -5 -12 -1 -6 16 6 15 4 34 -4 54 -7
17 -11 34 -7 38 3 3 11 -13 18 -35 7 -22 17 -46 22 -53z m3282 68 c-7 -8 -17
-15 -23 -15 -6 0 -2 7 9 15 25 19 30 19 14 0z m-3213 -17 c-3 -8 -6 -5 -6 6
-1 11 2 17 5 13 3 -3 4 -12 1 -19z m3290 -30 c-3 -8 -6 -5 -6 6 -1 11 2 17 5
13 3 -3 4 -12 1 -19z m-3262 -10 c6 -4 2 -8 -7 -8 -10 0 -18 7 -18 17 0 9 3
12 8 7 4 -5 12 -12 17 -16z m3094 9 c-2 -2 -17 -11 -34 -21 l-30 -17 24 20
c13 12 28 21 34 21 6 0 8 -1 6 -3z m127 -43 c12 -79 -15 -336 -37 -350 -5 -3
-9 -14 -9 -25 0 -30 -56 -156 -90 -203 -48 -65 -159 -155 -235 -192 -68 -33
-74 -34 -210 -36 -124 -3 -149 0 -215 21 -124 39 -260 128 -260 171 0 16 48
51 230 167 l65 41 3 -56 c6 -110 41 -92 67 34 l18 85 66 43 c36 24 82 52 101
61 19 10 58 34 85 54 28 20 84 56 125 80 41 24 102 61 135 82 137 85 151 87
161 23z m51 -36 c-2 -13 -4 -3 -4 22 0 25 2 35 4 23 2 -13 2 -33 0 -45z
m-3322 -6 c-7 -8 -35 7 -35 18 0 6 7 6 20 -2 10 -7 17 -14 15 -16z m40 18 c-3
-5 -11 -10 -16 -10 -6 0 -7 5 -4 10 3 6 11 10 16 10 6 0 7 -4 4 -10z m-175
-10 c0 -5 -5 -10 -11 -10 -5 0 -7 5 -4 10 3 6 8 10 11 10 2 0 4 -4 4 -10z
m125 -65 l7 -30 -16 29 c-18 31 -22 56 -7 41 5 -6 13 -23 16 -40z m50 35 c3
-5 1 -10 -4 -10 -6 0 -11 5 -11 10 0 6 2 10 4 10 3 0 8 -4 11 -10z m3282 -132
c-2 -13 -4 -3 -4 22 0 25 2 35 4 23 2 -13 2 -33 0 -45z m-1316 5 c12 -15 12
-16 -3 -10 -11 4 -18 0 -21 -11 -3 -9 -4 -5 -4 11 2 31 9 34 28 10z m30 -10
c-12 -20 -14 -14 -5 12 4 9 9 14 11 11 3 -2 0 -13 -6 -23z m-1871 7 c0 -5 -5
-10 -11 -10 -5 0 -7 5 -4 10 3 6 8 10 11 10 2 0 4 -4 4 -10z m240 -67 c0 -24
113 -172 205 -268 l86 -90 -7 -54 c-4 -30 -15 -73 -24 -95 -17 -39 -39 -128
-76 -301 l-16 -80 -40 45 c-37 42 -118 195 -118 223 0 7 -4 17 -8 23 -58 65
-90 524 -43 613 10 18 15 20 27 10 8 -6 14 -18 14 -26z m2907 5 c-3 -7 -5 -2
-5 12 0 14 2 19 5 13 2 -7 2 -19 0 -25z m1426 -5 c-7 -2 -21 -2 -30 0 -10 3
-4 5 12 5 17 0 24 -2 18 -5z m327 -19 c203 -15 433 -57 492 -91 5 -2 -12 -20
-37 -39 -34 -25 -50 -32 -63 -26 -37 19 -72 23 -72 8 0 -8 9 -17 20 -21 11 -3
28 -17 38 -30 12 -15 45 -31 93 -46 87 -26 125 -44 157 -72 27 -25 28 -33 5
-40 -31 -9 -147 -54 -185 -70 -34 -15 -36 -15 -34 0 2 9 8 19 14 21 7 2 12 8
12 13 0 6 -5 7 -10 4 -14 -9 -58 27 -52 43 2 8 -7 12 -27 12 -23 0 -31 5 -31
18 0 14 -2 15 -10 2 -5 -8 -10 -11 -10 -7 0 13 -23 -14 -39 -46 -8 -15 -25
-30 -38 -33 -13 -4 -23 -10 -23 -15 0 -5 -16 -9 -35 -9 -26 0 -35 4 -36 18 0
10 -3 12 -6 5 -2 -7 -9 -13 -15 -13 -6 0 -8 6 -5 14 4 10 0 12 -13 9 -11 -3
-27 2 -35 11 -9 9 -25 16 -36 16 -10 0 -19 4 -19 9 0 4 -11 6 -25 3 -14 -2
-25 0 -25 5 0 5 -10 9 -22 10 -11 1 -25 8 -29 15 -5 7 -9 9 -9 4 0 -5 -7 -3
-15 4 -10 9 -15 9 -15 1 0 -8 -5 -8 -19 1 -11 7 -17 16 -15 20 3 4 1 8 -4 8
-6 0 -13 7 -16 16 -3 8 -2 12 3 9 5 -3 3 9 -6 26 -12 24 -14 47 -9 98 4 36 8
72 8 79 1 6 4 12 7 12 3 0 7 11 7 24 2 20 -4 26 -25 29 -31 5 102 -1 209 -9z
m-1755 -5 c-4 -5 -1 -24 6 -41 11 -27 10 -32 -6 -40 -14 -8 -15 -12 -4 -19 16
-9 2 -40 -37 -82 -13 -14 -24 -31 -24 -37 0 -5 -4 -10 -10 -10 -5 0 -10 -9
-10 -21 0 -13 -4 -18 -12 -13 -7 4 -8 3 -4 -5 4 -6 0 -23 -8 -36 -9 -14 -14
-25 -10 -25 4 0 1 -7 -6 -15 -14 -17 -15 -132 -1 -148 5 -7 10 -15 10 -20 1
-19 19 -37 59 -57 23 -12 42 -29 42 -37 0 -13 3 -13 18 -3 9 7 -9 -13 -41 -44
-32 -31 -63 -54 -68 -50 -5 3 -8 0 -7 -8 2 -7 -4 -13 -12 -13 -8 0 -20 -7 -27
-15 -7 -8 -13 -10 -13 -4 0 7 -15 9 -45 4 -24 -4 -56 -6 -70 -4 -19 2 -25 -2
-25 -17 0 -21 -15 -25 -26 -7 -4 7 -3 8 4 4 8 -5 12 1 12 16 0 14 -3 18 -8 11
-4 -7 -28 -13 -52 -14 -55 -3 -72 -8 -64 -20 3 -5 0 -9 -5 -9 -6 0 -11 5 -11
11 0 6 -9 9 -20 6 -25 -6 -48 18 -24 27 12 5 14 9 5 20 -8 10 -5 19 14 40 14
15 25 31 25 35 0 5 20 29 45 54 26 25 43 51 40 58 -3 8 4 20 16 27 71 44 174
143 212 201 57 88 114 207 123 256 7 42 12 55 20 55 3 0 2 -5 -1 -11z m1438
-6 c-3 -7 -6 -13 -8 -13 -2 0 -5 6 -8 13 -3 8 1 14 8 14 7 0 11 -6 8 -14z
m-4803 -33 c0 -5 -4 -10 -10 -10 -5 0 -10 5 -10 10 0 6 5 10 10 10 6 0 10 -4
10 -10z m1614 -144 c-10 -8 -21 -12 -24 -10 -5 6 21 24 34 24 6 0 1 -6 -10
-14z m556 -151 c-7 -8 -17 -15 -23 -15 -6 0 -2 7 9 15 25 19 30 19 14 0z m30
-40 c-7 -8 -17 -15 -23 -15 -6 0 -2 7 9 15 25 19 30 19 14 0z m219 -122 c30
-14 71 -31 91 -39 19 -7 29 -13 22 -13 -7 -1 -10 -5 -7 -11 3 -5 -1 -10 -9
-10 -9 0 -16 -5 -16 -10 0 -6 11 -8 25 -6 13 3 27 0 31 -5 12 -20 -6 -22 -48
-6 -27 9 -71 15 -116 14 -42 -1 -72 2 -72 8 0 6 -4 4 -9 -3 -7 -11 -16 -10
-47 7 -22 11 -33 20 -26 21 9 0 11 7 7 21 -10 30 -15 120 -9 141 4 15 16 9 66
-33 34 -28 86 -62 117 -76z m-1581 89 c137 -105 305 -208 395 -243 33 -13 33
-19 -13 -169 -16 -52 -45 -165 -66 -250 -20 -85 -43 -165 -50 -177 -14 -22
-14 -22 -102 39 -48 33 -89 63 -92 67 -3 3 -38 32 -78 65 -40 32 -95 84 -123
114 l-52 56 6 71 c7 71 19 122 77 320 29 99 44 135 57 135 2 0 21 -13 41 -28z
m3832 -8 c30 -16 66 -29 79 -31 13 -1 31 -5 40 -9 19 -8 57 -15 88 -18 11 0
19 -4 16 -8 -2 -5 1 -8 7 -8 17 0 62 -49 55 -60 -3 -6 1 -10 9 -10 14 0 15 -9
10 -57 -4 -32 -12 -61 -18 -65 -6 -4 -8 -10 -4 -13 9 -9 -23 -45 -41 -45 -7 0
-20 -8 -27 -17 -11 -15 -13 -15 -9 -2 5 12 -1 16 -25 17 -17 0 -38 6 -46 12
-7 7 -21 10 -29 6 -9 -3 -28 2 -42 11 -27 18 -47 24 -75 24 -9 0 -19 6 -22 14
-3 8 -13 11 -26 8 -13 -4 -26 0 -31 8 -4 8 -19 14 -31 14 -18 0 -22 5 -20 24
1 13 -4 32 -13 41 -19 21 -39 124 -25 128 6 2 8 7 5 12 -5 8 14 27 49 46 29
17 63 11 126 -22z m-853 -115 c43 -27 65 -68 57 -108 -6 -29 -15 -36 -38 -32
-4 1 -14 -4 -22 -10 -11 -9 -18 -8 -29 1 -10 9 -15 9 -15 1 0 -6 -11 -11 -25
-11 -14 0 -25 -4 -25 -10 0 -5 -4 -10 -9 -10 -5 0 -8 8 -7 18 0 9 -4 16 -10
15 -8 -1 -8 14 -3 50 13 83 17 93 41 105 34 16 47 14 85 -9z m1693 -86 c0 -17
-3 -39 -6 -48 -6 -14 -8 -14 -23 -1 -9 8 -48 24 -86 35 -39 12 -53 19 -32 16
25 -4 37 -2 37 6 0 7 3 10 6 6 4 -3 12 0 19 7 7 7 29 12 49 12 34 -1 36 -3 36
-33z m-990 7 c0 -5 -7 -7 -15 -4 -8 4 -12 10 -9 15 6 11 24 2 24 -11z m777 -6
c-3 -3 -12 -4 -19 -1 -8 3 -5 6 6 6 11 1 17 -2 13 -5z m-1896 -38 c-9 -11 -8
-18 6 -32 17 -16 16 -17 -9 -12 -15 3 -26 2 -25 -1 1 -3 -2 -7 -6 -8 -5 0 -23
-14 -40 -30 -17 -15 -7 0 23 35 29 34 55 62 58 62 2 0 -1 -6 -7 -14z m1159
-16 c0 -5 -2 -10 -4 -10 -3 0 -8 5 -11 10 -3 6 -1 10 4 10 6 0 11 -4 11 -10z
m-3058 -86 c5 -3 56 -19 111 -34 56 -15 161 -43 232 -63 72 -19 150 -39 175
-43 l45 -9 -3 -60 c-2 -33 -19 -123 -37 -200 -19 -77 -42 -184 -51 -237 -10
-53 -23 -104 -30 -112 -19 -26 -171 -5 -372 52 -181 52 -418 146 -432 172 -7
13 39 224 85 390 9 30 24 85 34 123 29 103 27 102 137 62 53 -19 100 -37 106
-41z m2328 52 c0 -3 -4 -8 -10 -11 -5 -3 -10 -1 -10 4 0 6 5 11 10 11 6 0 10
-2 10 -4z m-673 -72 c-3 -3 -12 -4 -19 -1 -8 3 -5 6 6 6 11 1 17 -2 13 -5z
m17 -52 c6 -11 -35 -97 -66 -138 -187 -250 -190 -254 -323 -354 -71 -54 -111
-77 -120 -68 -3 2 2 36 10 74 8 38 27 130 41 204 15 74 33 145 40 157 9 14 28
24 51 28 102 16 224 49 283 75 72 32 77 34 84 22z m-867 -108 c107 -10 187
-13 248 -8 79 7 122 8 148 5 12 -2 8 -89 -7 -150 -8 -31 -24 -101 -36 -156
-35 -161 -46 -180 -110 -209 -62 -27 -126 -46 -133 -39 -3 2 -29 -2 -59 -11
-114 -32 -195 -42 -303 -38 -78 4 -78 4 -56 118 11 54 28 131 36 169 9 39 27
124 41 190 23 111 45 162 65 150 4 -3 79 -12 166 -21z m-2885 -714 c1 -19 13
-44 25 -56 12 -11 25 -33 29 -48 3 -15 13 -30 20 -33 8 -3 14 -11 14 -19 0 -8
5 -14 10 -14 6 0 10 -9 10 -19 0 -11 6 -26 14 -33 21 -21 57 -179 45 -195 -12
-13 -47 0 -62 25 -4 6 -14 12 -22 12 -20 0 -51 64 -70 145 -15 66 -33 285 -22
275 3 -3 7 -21 9 -40z m2998 -550 c0 -11 4 -20 9 -20 4 0 6 -11 3 -25 -5 -28
21 -65 46 -65 8 0 27 -11 44 -25 16 -14 27 -25 23 -25 -3 0 -3 -5 1 -11 4 -8
9 -7 15 2 5 8 9 9 9 3 0 -6 -7 -17 -15 -24 -16 -14 -21 -35 -5 -25 5 3 13 -9
18 -27 5 -18 15 -32 21 -30 8 2 10 -4 6 -18 -4 -13 -2 -20 7 -20 9 0 9 -3 2
-8 -6 -4 -21 -23 -35 -43 -58 -86 -171 -209 -191 -209 -17 0 1 66 36 138 19
37 36 88 40 114 5 41 3 49 -14 58 -14 8 -26 8 -40 0 -29 -15 -67 5 -49 26 19
23 17 74 -4 85 -9 6 -21 7 -26 5 -5 -3 -12 2 -15 11 -4 9 -1 20 5 24 6 4 9 11
6 16 -10 17 66 113 90 113 7 0 13 -9 13 -20z m577 -236 c2 -7 11 -10 19 -7 9
3 14 -2 14 -13 1 -18 1 -18 11 -1 14 23 32 22 24 -2 -3 -11 -1 -22 5 -26 28
-18 -4 -66 -73 -109 -38 -23 -149 -65 -193 -72 -35 -5 -48 3 -97 64 -27 34
-18 83 18 104 37 21 55 22 55 4 0 -17 27 -29 35 -16 4 6 -1 10 -10 10 -9 0
-15 6 -12 13 2 6 13 11 23 9 18 -2 18 -2 2 8 -10 6 -18 16 -18 23 0 7 4 6 10
-3 5 -8 10 -10 10 -5 0 6 7 2 15 -9 13 -17 14 -17 37 3 19 19 21 23 8 32 -13
9 -12 10 2 6 9 -3 29 -2 45 2 34 9 63 3 70 -15z m236 -380 c4 -1 14 -2 22 -3
8 0 15 -10 15 -21 0 -13 5 -17 14 -14 9 3 21 -5 31 -20 13 -20 26 -26 51 -26
21 0 37 -6 40 -14 14 -36 94 -25 94 13 0 9 9 35 20 57 12 21 19 30 16 19 -3
-11 -8 -33 -12 -50 -16 -69 -146 -290 -215 -366 -13 -14 -44 -50 -69 -80 -49
-59 -102 -110 -107 -105 -2 2 11 26 29 54 43 64 93 219 84 256 -6 25 -10 27
-39 21 -18 -4 -56 -16 -84 -28 -29 -11 -55 -18 -58 -15 -3 3 -8 29 -10 57 -4
59 -40 141 -61 141 -8 0 -33 -17 -56 -37 -24 -20 -54 -46 -67 -58 l-25 -20 22
31 c11 16 24 42 27 57 11 42 66 96 90 87 12 -4 25 -2 33 7 14 14 52 9 63 -9 3
-5 13 -6 23 -2 13 5 14 9 4 21 -10 13 -8 14 12 11 14 -1 29 -7 33 -13 4 -5 7
1 5 15 -2 17 2 25 12 25 8 0 19 6 23 13 5 7 14 9 20 5 7 -4 15 -8 20 -9z
m-519 -105 c-3 -5 -1 -9 5 -9 5 0 9 -8 8 -18 -1 -13 -8 -17 -26 -14 -19 2 -35
-6 -60 -32 -34 -35 -73 -48 -70 -23 4 36 -3 55 -23 60 -18 5 -19 8 -8 21 7 9
18 16 24 16 7 0 8 -3 0 -8 -6 -4 -4 -13 9 -25 18 -18 19 -18 24 2 3 12 11 17
19 14 8 -3 14 0 14 6 0 12 59 30 77 23 7 -2 10 -8 7 -13z m74 -160 c-3 -8 -7
-3 -11 10 -4 17 -3 21 5 13 5 -5 8 -16 6 -23z m-230 -9 c-7 -10 -14 -17 -17
-15 -4 4 18 35 25 35 2 0 -1 -9 -8 -20z"/>
<path d="M4830 5580 c0 -6 7 -10 15 -10 8 0 15 2 15 4 0 2 -7 6 -15 10 -8 3
-15 1 -15 -4z"/>
<path d="M5091 5124 c0 -11 3 -14 6 -6 3 7 2 16 -1 19 -3 4 -6 -2 -5 -13z"/>
<path d="M5195 5100 c-3 -5 -1 -10 4 -10 6 0 11 5 11 10 0 6 -2 10 -4 10 -3 0
-8 -4 -11 -10z"/>
<path d="M5440 5089 c0 -5 5 -7 10 -4 6 3 10 8 10 11 0 2 -4 4 -10 4 -5 0 -10
-5 -10 -11z"/>
<path d="M5161 5064 c0 -11 3 -14 6 -6 3 7 2 16 -1 19 -3 4 -6 -2 -5 -13z"/>
<path d="M5371 5034 c0 -11 3 -14 6 -6 3 7 2 16 -1 19 -3 4 -6 -2 -5 -13z"/>
<path d="M5138 4913 c6 -2 18 -2 25 0 6 3 1 5 -13 5 -14 0 -19 -2 -12 -5z"/>
<path d="M6279 4878 c-6 -14 -4 -80 2 -84 14 -9 49 16 43 30 -3 8 2 16 13 19
12 3 9 5 -9 6 -18 1 -28 7 -28 16 0 12 -17 22 -21 13z"/>
<path d="M6237 4849 c3 -11 0 -19 -8 -19 -7 0 -10 -3 -6 -6 3 -3 15 0 26 8 19
13 19 14 1 25 -15 10 -17 9 -13 -8z"/>
<path d="M2730 4832 c0 -5 9 -35 20 -68 23 -67 17 -90 -33 -126 -15 -11 -50
-48 -78 -82 -27 -33 -58 -71 -69 -84 -26 -31 -78 -143 -110 -237 -29 -86 -32
-167 -10 -284 11 -62 72 -170 122 -217 70 -66 166 -122 264 -154 88 -28 111
-32 207 -31 60 1 114 4 120 8 5 3 7 1 4 -4 -4 -6 5 -14 20 -18 33 -8 46 11 27
41 -12 17 -12 24 -3 30 8 4 9 3 5 -4 -4 -7 -2 -12 3 -12 6 0 11 5 11 11 0 6 7
8 16 5 8 -3 12 -2 9 3 -3 5 5 13 17 17 22 7 22 7 3 15 -16 6 -14 8 13 8 22 1
32 -4 32 -14 0 -8 8 -15 18 -15 14 0 14 2 3 9 -12 8 -12 13 3 35 9 14 19 26
22 26 4 0 1 -6 -5 -14 -9 -11 -6 -15 13 -18 14 -3 25 -2 24 1 -2 20 3 31 12
26 6 -4 10 5 10 19 0 14 4 26 9 26 5 0 7 -9 4 -20 -4 -15 0 -20 14 -20 10 0
24 -5 30 -11 8 -8 13 -8 18 0 3 6 -4 15 -17 20 -23 10 -23 10 4 10 23 1 26 5
26 36 0 20 5 41 11 48 5 7 8 23 4 35 -3 14 -1 22 7 22 8 0 9 10 5 28 -5 23 0
35 22 59 16 17 27 36 25 43 -3 7 0 10 5 7 6 -4 13 7 17 23 3 19 12 30 22 30
14 0 13 4 -6 20 -12 11 -27 17 -31 14 -5 -3 -9 0 -9 5 0 6 -5 11 -10 11 -6 0
-20 8 -30 18 -31 28 -99 62 -105 51 -4 -5 -11 -9 -16 -9 -6 0 -8 4 -5 9 3 5
-8 14 -24 20 -25 8 -30 7 -30 -5 0 -9 -5 -12 -12 -8 -10 6 -10 4 0 -7 15 -16
16 -33 0 -23 -6 4 -8 3 -5 -4 9 -13 -2 -44 -13 -37 -11 7 -22 -24 -14 -37 5
-7 -2 -9 -19 -6 -18 3 -28 0 -32 -11 -6 -14 -7 -14 -16 2 -6 9 -14 17 -19 17
-6 0 -10 -8 -10 -17 -1 -15 -3 -13 -13 5 -7 12 -16 20 -19 17 -3 -3 -11 1 -18
10 -7 8 -19 15 -28 15 -8 0 -31 16 -50 36 -32 33 -37 35 -59 23 -17 -9 -20
-15 -11 -21 10 -6 10 -8 1 -8 -7 0 -10 -7 -6 -17 3 -10 3 -15 -1 -12 -4 4 -8
15 -10 25 -2 11 -19 57 -36 104 -56 149 -141 392 -170 487 -16 50 -34 101 -40
112 -11 21 -30 29 -30 13z m88 -289 c17 -49 44 -128 62 -178 17 -49 35 -108
40 -131 5 -22 18 -67 30 -101 l21 -61 -21 -62 c-25 -75 -20 -160 11 -160 13 0
22 12 30 43 6 23 13 49 16 57 3 8 17 -19 32 -60 15 -41 37 -95 49 -120 12 -25
31 -70 41 -100 28 -78 20 -84 -113 -83 -58 0 -111 4 -118 10 -7 6 -28 13 -46
17 -102 19 -294 163 -317 237 -4 13 -13 31 -20 39 -7 8 -20 40 -28 70 -39 137
16 358 129 516 46 65 138 154 159 154 7 0 26 -39 43 -87z m342 -484 c0 -6 -4
-7 -10 -4 -5 3 -10 11 -10 16 0 6 5 7 10 4 6 -3 10 -11 10 -16z m-114 -43 l1
-31 -13 30 c-18 40 -18 60 -1 44 6 -6 12 -26 13 -43z m54 -146 c6 -11 8 -20 6
-20 -3 0 -10 9 -16 20 -6 11 -8 20 -6 20 3 0 10 -9 16 -20z m69 -175 c0 -5 -4
-3 -9 5 -5 8 -9 22 -9 30 0 16 17 -16 18 -35z m36 -14 c-6 -5 -25 10 -25 20 0
5 6 4 14 -3 8 -7 12 -15 11 -17z m135 9 c0 -5 -4 -10 -10 -10 -5 0 -10 5 -10
10 0 6 5 10 10 10 6 0 10 -4 10 -10z m-146 -60 c5 -17 4 -20 -2 -10 -5 8 -13
26 -16 40 -5 17 -4 20 2 10 5 -8 13 -26 16 -40z"/>
<path d="M5940 4760 c8 -16 8 -25 0 -35 -6 -7 -12 -25 -13 -39 -1 -15 -6 -26
-11 -25 -9 1 -26 -20 -26 -33 0 -4 7 -5 15 -2 19 8 21 -41 3 -50 -7 -3 -3 -3
10 0 13 3 22 1 22 -6 0 -6 5 -8 11 -4 6 3 15 0 20 -7 6 -10 9 -8 9 9 0 12 5
22 10 22 6 0 10 9 10 21 0 11 4 28 9 37 5 9 12 43 16 76 l7 58 -23 -21 c-13
-11 -25 -18 -28 -14 -3 5 -16 14 -29 21 -22 12 -23 12 -12 -8z"/>
<path d="M4915 4610 c-3 -5 -1 -10 4 -10 6 0 11 5 11 10 0 6 -2 10 -4 10 -3 0
-8 -4 -11 -10z"/>
<path d="M5870 4560 c0 -6 4 -9 9 -5 5 3 12 -2 14 -10 4 -12 5 -12 3 1 -1 19
-26 32 -26 14z"/>
<path d="M5816 4552 c-3 -5 1 -9 9 -9 8 0 12 4 9 9 -3 4 -7 8 -9 8 -2 0 -6 -4
-9 -8z"/>
<path d="M5345 4519 c-4 -6 -5 -12 -2 -15 2 -3 7 2 10 11 7 17 1 20 -8 4z"/>
<path d="M4746 4505 c-9 -26 -7 -32 5 -12 6 10 9 21 6 23 -2 3 -7 -2 -11 -11z"/>
<path d="M4496 4381 c-3 -5 -3 -17 1 -27 4 -12 3 -15 -5 -10 -7 4 -12 2 -12
-4 0 -6 -4 -8 -10 -5 -5 3 -10 2 -10 -3 0 -10 -53 -32 -77 -32 -8 0 -12 4 -9
8 3 5 -1 9 -9 9 -8 0 -15 -9 -15 -20 0 -16 -5 -18 -27 -13 -21 5 -24 4 -13 -4
12 -8 11 -10 -7 -10 -13 0 -23 -4 -23 -10 0 -5 5 -10 12 -10 6 0 8 -3 5 -6 -4
-4 -13 -1 -22 6 -10 8 -15 9 -15 1 0 -6 -9 -11 -20 -11 -11 0 -20 5 -20 10 0
18 -29 10 -40 -10 -8 -14 -17 -19 -30 -15 -15 5 -18 1 -16 -20 2 -14 0 -25 -4
-25 -14 0 -5 -65 13 -90 9 -13 17 -19 17 -13 0 6 6 11 13 10 29 -1 48 4 43 11
-2 4 13 16 35 26 21 11 39 23 39 28 0 4 7 8 15 8 9 0 18 7 21 15 10 26 24 16
22 -15 -1 -17 -8 -30 -15 -30 -7 0 -13 -8 -13 -19 0 -10 -9 -30 -20 -44 -11
-14 -20 -32 -20 -41 0 -20 29 -21 36 -1 4 8 10 15 15 15 4 0 6 -7 2 -16 -4
-11 -2 -15 6 -13 7 3 11 7 9 9 -3 6 10 23 65 83 20 23 37 47 37 54 0 7 7 13
15 13 8 0 12 6 9 13 -2 7 2 27 11 43 8 16 15 35 15 42 0 6 5 12 12 12 6 0 8 3
5 7 -4 3 -1 16 7 27 8 13 10 29 5 43 -9 25 -25 37 -33 24z"/>
<path d="M5710 4381 c0 -5 5 -13 10 -16 6 -3 10 -2 10 4 0 5 -4 13 -10 16 -5
3 -10 2 -10 -4z"/>
<path d="M4565 4340 c-16 -7 -17 -9 -3 -9 9 -1 20 4 23 9 7 11 7 11 -20 0z"/>
<path d="M5736 4329 c6 -11 31 -12 37 -1 3 4 -6 8 -19 8 -13 1 -21 -2 -18 -7z"/>
<path d="M5790 4330 c0 -5 5 -10 11 -10 5 0 7 5 4 10 -3 6 -8 10 -11 10 -2 0
-4 -4 -4 -10z"/>
<path d="M5820 4244 c0 -8 5 -12 10 -9 6 4 8 11 5 16 -9 14 -15 11 -15 -7z"/>
<path d="M5787 4244 c-3 -3 -3 -13 0 -21 5 -12 7 -12 14 -1 15 23 4 40 -14 22z"/>
<path d="M4643 4200 c1 -11 3 -17 6 -15 2 3 10 0 18 -6 20 -17 16 -2 -6 20
-19 19 -20 19 -18 1z"/>
<path d="M4080 4200 c0 -5 5 -10 10 -10 6 0 10 5 10 10 0 6 -4 10 -10 10 -5 0
-10 -4 -10 -10z"/>
<path d="M5798 4193 c7 -3 16 -2 19 1 4 3 -2 6 -13 5 -11 0 -14 -3 -6 -6z"/>
<path d="M5760 4170 c0 -11 4 -20 9 -20 5 0 7 9 4 20 -3 11 -7 20 -9 20 -2 0
-4 -9 -4 -20z"/>
<path d="M5803 4173 c-7 -2 -13 -9 -13 -14 0 -6 4 -8 9 -5 5 4 11 0 14 -6 3
-7 4 -3 4 10 -1 12 -1 22 -2 21 0 0 -6 -3 -12 -6z"/>
<path d="M4680 4160 c-9 -6 -10 -10 -3 -10 6 0 15 5 18 10 8 12 4 12 -15 0z"/>
<path d="M5836 4155 c-3 -8 -1 -15 4 -15 6 0 10 7 10 15 0 8 -2 15 -4 15 -2 0
-6 -7 -10 -15z"/>
<path d="M4570 4130 c0 -5 5 -10 11 -10 5 0 7 5 4 10 -3 6 -8 10 -11 10 -2 0
-4 -4 -4 -10z"/>
<path d="M5824 4104 c4 -9 1 -24 -6 -33 -11 -14 -11 -14 3 -3 24 18 31 52 12
52 -10 0 -13 -6 -9 -16z"/>
<path d="M5715 4063 c-20 -11 -30 -12 -33 -4 -2 6 -8 11 -13 11 -6 0 -5 -8 1
-20 10 -18 7 -21 -20 -26 -23 -5 -28 -9 -19 -20 11 -14 1 -40 -27 -68 -8 -9
-11 -16 -5 -16 7 0 9 -14 7 -35 -3 -19 0 -35 5 -35 5 0 9 -6 9 -13 0 -8 10
-22 21 -33 12 -10 25 -30 30 -43 6 -15 15 -21 24 -17 8 3 15 1 15 -4 0 -6 14
-10 31 -10 21 0 28 4 23 13 -6 10 -4 10 7 0 16 -16 65 -17 74 -3 4 6 15 8 26
5 22 -7 28 20 7 28 -10 4 -10 6 0 6 7 1 10 5 7 11 -6 9 -11 35 -21 110 -3 19
-9 39 -14 45 -4 5 -11 25 -13 44 -3 19 -12 38 -19 42 -7 5 -8 9 -2 9 5 0 16
-6 23 -12 11 -11 13 -10 7 5 -3 10 -6 20 -6 22 0 2 -8 1 -19 -2 -10 -3 -22 0
-25 6 -10 15 -29 14 -21 -1 4 -7 0 -5 -8 5 -17 20 -14 20 -52 0z"/>
<path d="M4385 4049 c-11 -16 -1 -19 13 -3 7 8 8 14 3 14 -5 0 -13 -5 -16 -11z"/>
<path d="M1887 3863 c-4 -3 -7 -11 -7 -17 0 -6 5 -5 12 2 6 6 9 14 7 17 -3 3
-9 2 -12 -2z"/>
<path d="M2000 3850 c0 -12 28 -21 35 -11 2 5 -4 11 -15 14 -11 3 -20 2 -20
-3z"/>
<path d="M1990 3826 c0 -3 14 -11 30 -20 17 -8 30 -10 30 -5 0 5 -12 14 -26
19 -28 11 -34 12 -34 6z"/>
<path d="M1997 3784 c3 -8 9 -14 15 -14 5 0 6 -5 2 -12 -4 -7 -3 -8 4 -4 18
11 14 33 -7 39 -14 3 -18 1 -14 -9z"/>
<path d="M3836 3701 c-4 -5 -2 -12 3 -15 5 -4 12 -2 15 3 4 5 2 12 -3 15 -5 4
-12 2 -15 -3z"/>
<path d="M3882 3655 c0 -16 2 -22 5 -12 2 9 2 23 0 30 -3 6 -5 -1 -5 -18z"/>
<path d="M3267 3589 c-4 -14 -10 -18 -19 -14 -11 7 -11 6 0 -6 11 -12 15 -11
28 5 16 23 18 36 5 36 -5 0 -11 -9 -14 -21z"/>
<path d="M3340 3600 c0 -4 9 -10 20 -13 11 -3 20 -2 20 3 0 4 -9 10 -20 13
-11 3 -20 2 -20 -3z"/>
<path d="M3835 3530 c-3 -5 -1 -10 4 -10 6 0 11 5 11 10 0 6 -2 10 -4 10 -3 0
-8 -4 -11 -10z"/>
<path d="M4084 3153 c10 -11 37 -12 30 -2 -3 5 -12 9 -21 9 -9 0 -13 -3 -9 -7z"/>
</g>
</svg>
